PLOT

A young man receives an emergency phone call on his cell phone from an older woman. The
catch? The woman claims to have been kidnapped; and the kidnappers have targeted her
husband and child next.
 
http://www.imdb.com/title/tt0337921/

Encoded By .......: BigPerm1828
Runtime ..........: 1h 33mn
File Size ........: 1.09 GB
Resolution .......: 704 x 396
IMDb URL .........: http://www.imdb.com/title/tt0337921/
Genre ............: Crime | Thriller
Language .........: English
Video
ID : 0
Format : MPEG-4 Visual
Codec ID : XVID
Codec ID/Hint : XviD
Duration : 1h 33mn
Bit rate : 56.2 Kbps
Width : 704 pixels
Height : 396 pixels
Display aspect ratio : 16:9
Frame rate : 29.970 fps
Color space : YUV
Chroma subsampling : 4:2:0
Compression mode : Lossy
Bits/(Pixel*Frame) : 0.007
Stream size : 37.7 MiB (3%)

Audio
ID : 1
Format : AC-3
Format/Info : Audio Coding 3
Codec ID : 2000
Duration : 1h 33mn
Bit rate mode : Constant
Bit rate : 448 Kbps
Channel(s) : 6 channels
Sampling rate : 48.0 KHz
Bit depth : 16 bits
Compression mode : Lossy
Stream size : 301 MiB (27%)
Alignment : Aligned on interleaves
 
http://www.shotpix.com/images/07976518202472570662.png
 
http://www.shotpix.com/images/45655801027084783094.png
 
http://www.shotpix.com/images/64303349645574123381.png
 
http://www.shotpix.com/images/26528723583795913435.png
 
http://www.shotpix.com/images/27317777796169807561.png